<?xml version="1.0" encoding="utf-8"?>
<!-- Generator: Adobe Illustrator 16.0.0, SVG Export Plug-In . SVG Version: 6.00 Build 0)  -->
<!DOCTYPE svg PUBLIC "-//W3C//DTD SVG 1.1//EN" "http://www.w3.org/Graphics/SVG/1.1/DTD/svg11.dtd">
<svg version="1.1" xmlns="http://www.w3.org/2000/svg" xmlns:xlink="http://www.w3.org/1999/xlink" x="0px" y="0px"
	 width="543.277px" height="200.39px" viewBox="0 0 543.277 200.39" enable-background="new 0 0 543.277 200.39"
	 xml:space="preserve">
<g id="Layer_1">
	<g>
		<path d="M77.624,62.221c8.88,7.451,13.32,19.709,13.32,36.778c0,10.755-2.294,19.709-6.882,26.861
			c-4.588,7.155-10.878,12.458-18.87,15.91c-7.992,3.455-17.071,5.18-27.232,5.18H9.396V51.047h30.192
			C56.064,51.047,68.744,54.772,77.624,62.221z M56.467,129.782c5.446-1.873,9.643-5.254,12.592-10.138
			c2.946-4.884,4.421-11.766,4.421-20.646c0-11.84-2.724-20.399-8.17-25.678c-5.446-5.277-13.864-7.918-25.252-7.918h-13.79v67.192
			h9.292C44.051,132.595,51.021,131.658,56.467,129.782z"/>
		<path d="M267.724,84.272c3.305,3.307,4.958,8.362,4.958,15.17v47.508h-15.983v-42.031c0-3.256-0.296-5.795-0.888-7.622
			c-0.593-1.825-1.531-3.132-2.813-3.923c-1.283-0.788-3.06-1.184-5.328-1.184c-4.835,0-10.063,1.48-15.688,4.44
			c0.097,0.592,0.147,1.53,0.147,2.812v47.508h-15.983v-42.031c0-3.256-0.296-5.795-0.889-7.622
			c-0.592-1.825-1.53-3.132-2.812-3.923c-1.283-0.788-3.06-1.184-5.328-1.184c-2.368,0-4.884,0.396-7.548,1.184
			c-2.664,0.791-5.279,1.876-7.844,3.257v50.319h-15.984V81.535l15.984-1.628v5.772c7.4-4.241,14.601-6.364,21.608-6.364
			c7.497,0,12.729,2.468,15.688,7.4c3.748-2.169,7.744-3.945,11.987-5.328c4.241-1.38,8.533-2.072,12.876-2.072
			C259.806,79.314,264.417,80.968,267.724,84.272z"/>
		<path d="M303.641,81.353v65.598h-17.289V82.3C291.119,82.3,296.883,81.984,303.641,81.353z"/>
		<path d="M372.043,84.272c3.5,3.307,5.254,8.461,5.254,15.467v47.211h-15.984v-42.031c0-3.256-0.322-5.795-0.961-7.622
			c-0.645-1.825-1.729-3.132-3.258-3.923c-1.529-0.788-3.625-1.184-6.289-1.184c-5.031,0-10.607,1.531-16.725,4.588v50.172h-15.984
			V81.535l15.984-1.628v6.364c7.992-4.636,15.689-6.956,23.088-6.956C363.582,79.314,368.539,80.968,372.043,84.272z"/>
		<path d="M449.816,84.199c3.551,3.256,5.328,8.339,5.328,15.244v47.508H439.16v-42.031c0-3.256-0.348-5.795-1.037-7.622
			c-0.691-1.825-1.801-3.132-3.33-3.923c-1.529-0.788-3.625-1.184-6.289-1.184c-5.23,0-10.707,1.48-16.428,4.44v50.319h-15.984
			V45.126l15.984-1.628v42.18c7.596-4.241,15.193-6.364,22.791-6.364C441.281,79.314,446.264,80.943,449.816,84.199z"/>
		<path d="M483.559,144.213c-4.836-3.108-8.461-7.301-10.877-12.58c-2.42-5.277-3.627-11.175-3.627-17.687
			c0-8.188,1.555-14.848,4.662-19.979c3.107-5.13,7.275-8.854,12.506-11.174c5.229-2.317,11.1-3.478,17.611-3.478
			c7.201,0,13.221,1.506,18.057,4.514c4.834,3.011,8.459,7.129,10.879,12.358c2.416,5.23,3.625,11.199,3.625,17.908
			c0,8.092-1.553,14.727-4.662,19.906c-3.107,5.18-7.277,8.953-12.506,11.322c-5.23,2.367-11.15,3.551-17.76,3.551
			C494.363,148.874,488.393,147.321,483.559,144.213z M515.879,130.448c2.627-3.996,3.939-9.494,3.939-16.502
			c0-7.004-1.363-12.455-4.088-16.354c-2.725-3.896-6.912-5.846-12.559-5.846c-6.244,0-10.73,1.924-13.455,5.771
			s-4.086,9.324-4.086,16.428c0,6.908,1.41,12.384,4.236,16.428c2.824,4.047,7.109,6.068,12.857,6.068
			C508.867,136.442,513.252,134.444,515.879,130.448z"/>
	</g>
</g>
<g id="Layer_3">
	<path d="M231-49.122"/>
	<path d="M310.5,64.128"/>
	<g>
		<path fill="#006633" stroke="#006633" stroke-miterlimit="10" d="M290.25,62.654L290,72.795c0.02,1.219,0.983,2.465,2.061,2.685
			c0.082,0.014,2.04,0.642,3.262-1.57c1.736-3.1,4.268-6.166,8.162-8.264c7.892-3.583,16.629-5.211,26.194-4.802
			c10.865,0.82,17.316-3.758,20.652-12.169c7.82-2.598,13.568-7.307,17.052-14.325c0.76-2.086-0.913-3.984-2.72-3.809
			c-8.417,0.801-15.649,1.225-21.446-0.142c-3.352-0.728-6.754-1.313-10.261-1.186c0.189-0.54,0.236-1.129,0.248-1.572
			c0.037-1.834-0.878-2.891-2.825-3.096c-11.492,0.186-21.646,3.842-28.342,10.065C292.788,42.479,289.045,51.887,290.25,62.654z
			 M326.839,29.912c-0.14,0.398-0.411,0.765-0.551,1.163c-1.274,2.482,0.745,4.748,3.213,4.126
			c3.785-1.372,8.124-0.458,12.778,0.423c5.278,1.287,10.992,1.571,17.13,0.894c-2.489,3.398-6.888,4.628-11.635,7.062
			c-1.567,0.85-2.568,2.058-3.061,3.587c-3.744,6.854-8.767,8.918-16.468,7.921c-9.121-0.238-17.765,1.25-25.843,4.666
			c4.731-6.421,13.335-14.343,27.08-14.62c1.525-0.071,2.711-1.315,2.781-2.791c-0.071-1.525-1.315-2.711-2.791-2.781
			c-18.448,0.274-28.859,12.078-33.665,19.743c0.142-6.746,1.434-11.256,3.854-13.639C306.89,34.68,315.25,31.406,326.839,29.912z"
			/>
	</g>
</g>
<g id="Layer_2">
	<g transform="translate(0 -540.36)">
		<g>
			<g>
				<circle stroke="#000000" stroke-width="3" stroke-miterlimit="10" cx="136.736" cy="655.549" r="1.278"/>
				<circle stroke="#000000" stroke-width="3" stroke-miterlimit="10" cx="126.49" cy="639.369" r="1.278"/>
				<circle stroke="#000000" stroke-width="3" stroke-miterlimit="10" cx="114.138" cy="654.419" r="1.278"/>
				<circle stroke="#000000" stroke-width="3" stroke-miterlimit="10" cx="124.222" cy="674.163" r="1.277"/>
				<path stroke="#000000" stroke-width="3" stroke-miterlimit="10" d="M143.095,690.223"/>
				<circle stroke="#000000" stroke-width="3" stroke-miterlimit="10" cx="149.274" cy="661.677" r="1.278"/>
				<path stroke="#CC3333" stroke-width="3" stroke-miterlimit="10" d="M111.859,664.277c0.01,1.955,1.611,3.524,3.55,3.515
					c1.955-0.011,3.524-1.598,3.514-3.552c-0.01-1.953-1.597-3.523-3.551-3.513C113.419,660.737,111.849,662.324,111.859,664.277z
					 M116.669,664.252c0.004,0.708-0.564,1.281-1.271,1.284c-0.706,0.004-1.28-0.563-1.284-1.271
					c-0.004-0.706,0.564-1.281,1.271-1.284S116.666,663.546,116.669,664.252z"/>
				<path stroke="#CC3333" stroke-width="3" stroke-miterlimit="10" d="M126.386,648.193c-0.014-2.69-2.22-4.873-4.911-4.859
					c-2.69,0.014-4.873,2.22-4.859,4.91c0.014,2.691,2.205,4.874,4.91,4.859C124.217,653.089,126.4,650.884,126.386,648.193z
					 M118.871,648.232c-0.008-1.442,1.174-2.636,2.617-2.644c1.443-0.007,2.636,1.174,2.644,2.616
					c0.007,1.443-1.174,2.637-2.617,2.645C120.071,650.857,118.878,649.675,118.871,648.232z"/>
				<path stroke="#CC3333" stroke-width="3" stroke-miterlimit="10" d="M140.432,652.374c0.013,2.36,1.947,4.274,4.307,4.261
					c2.36-0.012,4.273-1.945,4.261-4.306c-0.013-2.359-1.946-4.273-4.306-4.261C142.333,648.08,140.42,650.014,140.432,652.374z
					 M146.745,652.341c0.006,1.111-0.907,2.033-2.019,2.039s-2.034-0.906-2.04-2.02c-0.006-1.111,0.906-2.033,2.019-2.039
					C145.818,650.316,146.739,651.228,146.745,652.341z"/>
				<path stroke="#000000" stroke-width="3" stroke-miterlimit="10" d="M135.456,646.583c1.954-0.011,3.525-1.597,3.514-3.55
					c-0.01-1.955-1.597-3.525-3.551-3.515c-1.954,0.01-3.524,1.597-3.514,3.551C131.916,645.023,133.503,646.592,135.456,646.583z
					 M134.16,643.057c-0.004-0.707,0.564-1.28,1.271-1.284s1.281,0.564,1.284,1.271c0.004,0.705-0.564,1.279-1.271,1.283
					C134.738,644.332,134.164,643.763,134.16,643.057z"/>
				<path fill="#FF9933" stroke="#000000" stroke-width="3" stroke-miterlimit="10" d="M133.851,687.327
					c0.194-0.228,0.283-0.528,0.251-0.829l-2.36-25.962l20.633,16.201c0.483,0.389,1.204,0.295,1.577-0.188
					c4.226-5.374,6.505-12.091,6.379-18.929c-0.11-6.823-2.581-13.469-6.982-18.723c-4.492-5.236-10.658-8.842-17.384-10.115
					c-6.756-1.288-13.8-0.168-19.81,3.125c-6.056,3.232-10.838,8.488-13.497,14.801c-1.543,3.676-2.305,7.588-2.284,11.48
					c0.015,2.826,0.45,5.649,1.291,8.366c2.019,6.573,6.257,12.309,11.915,16.142c5.702,3.834,12.61,5.631,19.507,5.024
					C133.387,687.689,133.656,687.552,133.851,687.327z M131.063,657.142c-0.333-0.269-0.813-0.297-1.218-0.084
					c-0.39,0.213-0.628,0.65-0.581,1.086l2.026,22.355c-10.399,0.551-19.691-5.895-22.766-15.934
					c-2.956-10.432,1.558-21.203,10.971-26.197l0.016-0.016c9.202-5.158,20.982-3.115,27.998,4.83
					c6.972,8.08,7.498,19.486,1.318,27.905L131.063,657.142z M103.826,665.883c-3.852-12.337,1.79-25.789,13.421-31.982
					c11.392-6.252,25.866-3.532,34.411,6.464c4.235,5.059,6.388,11.33,6.42,17.613c0.03,5.727-1.699,11.463-5.191,16.291
					l-2.249-1.762c3.253-4.406,4.939-9.842,4.729-15.342c-0.21-5.635-2.373-11.11-6.123-15.45c-3.75-4.249-8.891-7.124-14.458-8.086
					c-5.597-0.979-11.394,0.014-16.325,2.775c-5.021,2.671-8.982,7.007-11.149,12.233c-1.276,3.073-1.921,6.384-1.903,9.721
					c0.012,2.299,0.34,4.597,0.967,6.849c0,0.015,0,0.015,0,0.015c1.652,5.403,5.134,10.135,9.811,13.297
					c4.48,3.043,9.899,4.532,15.324,4.234l0.255,2.81C119.008,686.156,107.618,678.204,103.826,665.883z"/>
				<path stroke="#000000" stroke-width="3" stroke-miterlimit="10" d="M139.569,700.208c8.038-0.808,15.563-4.876,20.67-11.155
					c0.194-0.241,0.283-0.543,0.251-0.844c-0.032-0.3-0.184-0.57-0.425-0.764l-22.7-17.814c-0.362-0.283-0.844-0.312-1.233-0.098
					c-0.36,0.196-0.583,0.588-0.582,0.993c0,0.03,0,0.075,0.001,0.105l2.779,28.561c0.032,0.301,0.168,0.569,0.41,0.765
					C138.968,700.136,139.269,700.24,139.569,700.208z M149.399,682.87c0.004,0.707-0.564,1.281-1.271,1.284
					c-0.707,0.005-1.28-0.563-1.284-1.271c-0.003-0.706,0.564-1.28,1.271-1.284C148.821,681.595,149.396,682.164,149.399,682.87z
					 M138.045,673.055l8.512,6.659c-1.169,0.577-1.975,1.783-1.967,3.182c0.01,1.954,1.597,3.523,3.551,3.513
					c1.684-0.008,3.075-1.188,3.428-2.753l2.173,1.718c-3.571,4.032-8.308,6.581-13.775,7.437 M140.189,695.048
					c6.098-0.918,11.359-3.771,15.333-8.286l2.219,1.731c-4.453,5.044-10.644,8.383-17.283,9.32L140.189,695.048z"/>
			</g>
		</g>
	</g>
</g>
</svg>
